<svg xmlns="http://www.w3.org/2000/svg" width="66" height="65" viewBox="0 0 66 65" fill="none"><path fill-rule="evenodd" clip-rule="evenodd" d="M38.1489 0C30.8295 1.63387 22.212 -3.08414 15.7679 4.77931C6.14059 16.5271 6.48383 41.4453 18.7354 50.1389C22.8591 53.0651 45.8061 65.4658 48.6132 64.9865C69.8025 61.3683 71.1123 7.53717 48.6132 0L38.1489 0Z" fill="#FFD797"></path><path fill-rule="evenodd" clip-rule="evenodd" d="M1.26593 41.8809C1.00044 33.773 2.01572 23.7697 1.80071 17.9848C1.80071 17.9848 0.564477 13.0128 4.29832 12.0506C8.03216 11.0884 63.345 9.27658 64.2329 15.007C65.8396 25.3749 64.5981 35.9661 63.4593 46.38C63.1965 48.7829 62.8148 52.4981 60.0774 53.0082C48.1038 55.2397 32.1203 53.0082 14.1631 53.0082C11.7331 53.0082 5.30509 53.8273 1.80071 49.8176C0.53855 48.3734 1.26593 41.8809 1.26593 41.8809Z" stroke="black" stroke-width="2"></path><path fill-rule="evenodd" clip-rule="evenodd" d="M44.0641 37.9456C44.0641 36.3676 44.1749 34 45.0286 34C49.0776 34 53.976 36.6982 54.1493 36.8968C54.8712 37.7238 51.2385 39.3802 51.5506 40.4411C52.2833 42.9321 55.3096 44.2889 55.9839 46.7971C56.2223 47.6839 53.7513 49.4839 53.0497 48.8778C49.8152 46.0835 48.8206 41.6241 46.1271 44.2656C43.4336 46.9071 44.0641 41.4899 44.0641 37.9456Z" stroke="black" stroke-width="2"></path><path d="M25 19.7995C29.7639 19.8233 34.8291 19.0785 39.5931 19.1023C41.4006 19.1114 42.9068 19.8892 44.7143 19.8982" stroke="black" stroke-width="2" stroke-linecap="round"></path><path d="M25 53.5C25 54.9499 25 56.4915 25 57.9414C25 58.4915 25 58.9499 25 59.5" stroke="black" stroke-width="2" stroke-linecap="round"></path><path d="M34 54.5C34 55.7082 34 56.9929 34 58.2011C34 58.6596 34 59.0416 34 59.5" stroke="black" stroke-width="2" stroke-linecap="round"></path><path d="M43 36.2005C35.0256 36.1767 26.5469 36.9215 18.5725 36.8977C15.5469 36.8886 13.0256 36.1108 10 36.1018" stroke="black" stroke-width="2" stroke-linecap="round"></path><path d="M40 59.2005C35.4087 59.1767 30.527 59.9215 25.9357 59.8977C24.1936 59.8886 22.742 59.1108 21 59.1018" stroke="black" stroke-width="2" stroke-linecap="round"></path><path d="M10 41.2005C17.9744 41.1767 26.4531 41.9215 34.4275 41.8977C37.4531 41.8886 39.9744 41.1108 43 41.1018" stroke="black" stroke-width="2" stroke-linecap="round"></path><path d="M25 24.7995C30.5579 24.8233 36.4673 24.0785 42.0252 24.1023C44.134 24.1114 45.8912 24.8892 48 24.8982" stroke="black" stroke-width="2" stroke-linecap="round"></path><path d="M25 29.074C30.5579 29.0979 32.3903 29.902 37.9482 29.9259C40.0569 29.9349 45.8912 29.1637 48 29.1728" stroke="black" stroke-width="2" stroke-linecap="round"></path><path fill-rule="evenodd" clip-rule="evenodd" d="M16.008 18.7737C14.7174 18.9353 13.2366 18.565 12.1361 19.2584C1.98565 25.6538 23.7722 33.3932 19.3337 21.7872C18.8512 20.5256 17.4457 19.8549 16.5017 18.8887L16.008 18.7737Z" stroke="black" stroke-width="2" stroke-linejoin="round"></path></svg>