<svg xmlns="http://www.w3.org/2000/svg" width="64" height="71" viewBox="0 0 64 71" fill="none"><path fill-rule="evenodd" clip-rule="evenodd" d="M35.4099 7.97497C28.0849 8.48061 19.0379 1.09196 15.1148 11.6494C8.55614 29.2993 -2.74593 46.8365 7.36519 58.1824C10.7685 62.0012 35.5684 69.3956 38.35 69.3588C46.8555 69.2462 46.354 59.0643 47.6717 48.8718C49.6069 33.9037 49.3758 16.3178 37.3863 9.27147L35.4099 7.97497Z" fill="#D2D9F1"></path><path fill-rule="evenodd" clip-rule="evenodd" d="M43.4201 11.5031C51.1444 18.0042 54.8022 18.8065 51.5746 22.6531C46.6414 28.5323 45.1656 29.7935 26.1241 52.4864C24.565 54.3444 22.5935 51.7284 20.0569 49.7804C17.4058 47.7443 14.1189 46.5668 14.9348 45.474C24.0216 33.3043 32.9196 24.0783 41.9119 13.3804L43.4201 11.5031Z" stroke="black" stroke-width="2"></path><path fill-rule="evenodd" clip-rule="evenodd" d="M44.6763 10.236C45.4318 9.24962 46.5781 8.21233 47.113 7.50516C47.113 7.50516 47.4052 6.75668 48.0952 7.1434C48.7853 7.53012 57.7831 14.7181 57.3608 15.509C56.5967 16.9398 55.3566 18.0157 54.1502 19.0847C53.8719 19.3313 53.4454 19.7159 52.9587 19.4095C50.83 18.0692 48.501 15.669 45.6378 13.2665C45.2503 12.9413 44.1448 12.1774 43.9806 11.2383C43.9214 10.9001 44.6763 10.236 44.6763 10.236Z" stroke="black" stroke-width="2"></path><path fill-rule="evenodd" clip-rule="evenodd" d="M58.6044 14.1891C59.4446 13.2738 60.2671 11.9648 60.8706 11.3152C60.8706 11.3152 62.1428 8.84837 61.5764 7.93354C60.4734 6.15202 57.1002 4.08431 55.3015 2.66829C53.5848 1.31682 51.4818 2.39901 51.2089 2.61295C49.9325 3.61388 49.0883 5.02205 48.2451 6.39568C48.0505 6.71263 47.7458 7.19939 48.1321 7.62547C49.8216 9.48914 52.5898 11.3659 55.453 13.7685C55.8405 14.0936 56.7848 15.0497 57.7382 15.0483C58.0815 15.0478 58.6044 14.1891 58.6044 14.1891Z" stroke="black" stroke-width="2"></path><path d="M14.492 46.0902C11.0675 63.1972 11.0745 61.2251 24.2965 52.9484" stroke="black" stroke-width="2" stroke-linecap="round" stroke-linejoin="round"></path><path d="M43.6196 20.443C37.2646 28.2772 30.9097 36.1114 24.5547 43.9456" stroke="black" stroke-width="2" stroke-linecap="round" stroke-linejoin="round"></path><path d="M13.6615 50.3023C14.1712 52.652 16.5394 52.7172 16.5394 52.7172C16.5394 52.7172 16.8529 54.9022 19.7545 54.7301" stroke="black" stroke-width="2" stroke-linecap="round"></path><path d="M32.0546 51.3896C36.8964 51.4196 42.0444 50.4805 46.8862 50.5106C48.7232 50.522 50.254 51.5026 52.0911 51.514" stroke="black" stroke-width="2" stroke-linecap="round"></path><path d="M52.0911 43.8249C48.7624 43.855 45.2231 42.9159 41.8944 42.946C40.6314 42.9574 39.579 43.938 38.316 43.9494" stroke="black" stroke-width="2" stroke-linecap="round"></path><path d="M2.00002 51.3896C3.81567 51.4197 5.555 50.9819 7.37066 51.012C8.05955 51.0234 8.82478 51.5026 9.51367 51.5141" stroke="black" stroke-width="2" stroke-linecap="round"></path><path d="M12.0182 43.0697C9.59735 43.0396 7.02335 43.9787 4.60247 43.9487C3.68395 43.9373 2.91854 42.9567 2.00002 42.9452" stroke="black" stroke-width="2" stroke-linecap="round"></path><path d="M15.7751 58.9543C23.0377 58.9843 30.7597 58.0452 38.0223 58.0753C40.7779 58.0867 43.0741 59.0673 45.8297 59.0787" stroke="black" stroke-width="2" stroke-linecap="round"></path></svg>