<svg xmlns="http://www.w3.org/2000/svg" width="67" height="65" viewBox="0 0 67 65" fill="none"><path fill-rule="evenodd" clip-rule="evenodd" d="M35.5945 0C26.9077 1.83359 16.6803 -3.46115 9.0323 5.36354C-2.39361 18.5474 -1.98625 46.5116 12.5542 56.268C17.4483 59.5519 30.4874 59.1852 33.819 58.6472C39.5932 57.7149 43.9664 58.4801 46.6058 54.931C55.4614 43.0232 48.8515 16.2394 44.8406 2.20172L35.5945 0Z" fill="#97ECA3"></path><path fill-rule="evenodd" clip-rule="evenodd" d="M24.3687 10.0378C32.3474 9.81298 42.1913 10.6726 47.884 10.4906C47.884 10.4906 52.7767 9.44387 53.7236 12.6052C54.6704 15.7666 56.4534 62.5987 50.8144 63.3506C40.6116 64.7108 30.1893 63.6597 19.9414 62.6955C17.5768 62.473 13.9208 62.1498 13.4188 59.8321C11.2228 49.6944 13.4188 36.1615 13.4188 20.9575C13.4188 16.7598 24.3687 10.0378 24.3687 10.0378Z" stroke="black" stroke-width="2"></path><path d="M24.4061 10.2062C24.8799 24.1423 28.1862 20.6016 13.7574 20.0992" stroke="black" stroke-width="2"></path><path d="M23.5023 27.2465C28.5498 27.2715 33.9164 26.4918 38.9638 26.5168C40.8789 26.5263 42.4747 27.3404 44.3898 27.3498" stroke="black" stroke-width="2" stroke-linecap="round"></path><path d="M59.5984 35.62C61.1453 35.645 62.7901 34.8653 64.337 34.8903C64.924 34.8998 65.4131 35.7139 66 35.7234" stroke="black" stroke-width="2" stroke-linecap="round"></path><path d="M8.33871 35.62C6.79177 35.645 5.14698 34.8653 3.60004 34.8903C3.0131 34.8998 2.52401 35.7139 1.93707 35.7234" stroke="black" stroke-width="2" stroke-linecap="round"></path><path d="M6.54935 28.8733C4.51774 28.2262 4.20513 27.0005 3.77467 26.475C3.29628 25.891 2.74214 25.8734 0.999994 22.156" stroke="black" stroke-width="2" stroke-linecap="round"></path><path d="M7.18951 40.9965C5.15791 41.6435 4.8453 42.8692 4.41484 43.3947C3.93645 43.9788 3.38231 43.9964 1.64016 47.7137" stroke="black" stroke-width="2" stroke-linecap="round"></path><path d="M23.4221 33.5266C29.2489 33.5516 35.4443 32.772 41.2711 32.7969C43.4819 32.8064 45.3242 33.6205 47.535 33.63" stroke="black" stroke-width="2" stroke-linecap="round"></path><path d="M23.4221 38.7601C29.2489 38.7851 31.1699 39.6268 36.9968 39.6517C39.2076 39.6612 45.3242 38.854 47.535 38.8634" stroke="black" stroke-width="2" stroke-linecap="round"></path><path d="M58.6613 28.8733C60.6929 28.2262 61.0055 27.0005 61.436 26.475C61.9143 25.891 62.4685 25.8734 64.2106 22.156" stroke="black" stroke-width="2" stroke-linecap="round"></path><path d="M59.3015 40.9965C61.3331 41.6435 61.6457 42.8692 62.0761 43.3947C62.5545 43.9788 63.1087 43.9964 64.8508 47.7137" stroke="black" stroke-width="2" stroke-linecap="round"></path></svg>