<?xml version="1.0" standalone="no"?>
<!DOCTYPE svg PUBLIC "-//W3C//DTD SVG 20010904//EN"
 "http://www.w3.org/TR/2001/REC-SVG-20010904/DTD/svg10.dtd">
<svg version="1.0" xmlns="http://www.w3.org/2000/svg"
 width="600.000000pt" height="600.000000pt" viewBox="0 0 600.000000 600.000000"
 preserveAspectRatio="xMidYMid meet">

<g transform="translate(0.000000,600.000000) scale(0.100000,-0.100000)"
fill="#000000" stroke="none">
<path d="M2201 5473 c-30 -2 -64 -11 -75 -19 -11 -8 -30 -14 -42 -14 -52 0
-230 -122 -281 -192 -17 -24 -43 -56 -58 -73 -25 -28 -86 -106 -180 -229 -22
-29 -60 -77 -85 -107 -25 -30 -57 -70 -72 -89 -14 -19 -36 -46 -48 -60 -25
-28 -127 -159 -179 -229 -19 -25 -56 -69 -82 -98 -27 -28 -49 -60 -49 -69 0
-19 121 -140 205 -207 28 -21 100 -85 160 -141 61 -56 145 -130 189 -166 43
-35 118 -100 165 -144 48 -45 116 -106 151 -136 35 -30 113 -100 174 -155 61
-55 125 -112 141 -126 17 -15 62 -55 102 -90 39 -35 143 -127 230 -204 87 -76
208 -184 268 -239 61 -54 130 -118 155 -140 145 -130 380 -345 480 -436 63
-58 134 -123 159 -145 96 -87 103 -96 96 -124 -4 -14 -23 -46 -43 -71 -20 -25
-40 -49 -45 -55 -4 -5 -19 -23 -33 -40 -14 -16 -52 -64 -84 -105 -33 -41 -89
-111 -125 -155 -36 -44 -89 -110 -118 -147 -28 -37 -59 -67 -68 -68 -9 0 -24
10 -35 21 -10 12 -46 44 -79 72 -57 46 -208 183 -279 251 -17 17 -79 71 -136
121 -58 49 -136 119 -175 156 -72 68 -238 216 -310 274 -72 59 -101 68 -205
69 -87 0 -99 -2 -138 -27 -24 -15 -46 -35 -49 -44 -7 -19 72 -98 274 -274 65
-57 159 -142 208 -190 50 -47 128 -120 175 -160 47 -41 119 -106 160 -145 41
-39 113 -104 160 -145 47 -40 126 -112 175 -159 50 -47 117 -108 150 -137 33
-28 95 -82 138 -118 256 -220 506 -306 805 -277 65 7 140 19 167 27 28 9 66
21 85 26 62 20 183 81 255 130 87 60 205 180 320 324 48 61 111 139 140 175
76 93 134 165 180 226 65 86 155 195 207 251 26 28 48 56 48 61 0 4 27 40 60
78 40 47 60 78 60 95 0 28 -1 29 -146 154 -38 33 -96 85 -129 115 -33 31 -96
87 -140 124 -44 38 -114 101 -155 140 -41 39 -109 101 -151 136 -75 64 -217
190 -449 400 -64 58 -147 132 -185 165 -38 33 -105 94 -150 135 -44 41 -117
106 -160 145 -44 38 -130 115 -190 170 -61 55 -149 134 -195 175 -47 41 -119
107 -160 146 -41 38 -111 101 -155 139 -142 122 -305 283 -305 303 0 10 11 29
25 42 13 12 37 41 52 64 15 22 30 43 33 46 3 3 22 26 43 53 56 69 73 66 183
-35 49 -46 109 -98 134 -117 25 -19 50 -39 55 -45 19 -21 90 -71 126 -89 64
-33 238 -13 293 32 44 36 40 43 -77 148 -62 55 -134 119 -162 140 -27 22 -62
51 -76 64 -58 54 -117 106 -162 143 -66 55 -64 77 13 169 24 28 35 24 114 -48
6 -6 58 -49 116 -96 58 -48 112 -94 120 -104 8 -10 44 -41 80 -70 36 -29 97
-81 136 -116 141 -128 283 -242 324 -260 57 -26 182 -28 225 -5 17 9 35 16 40
16 11 1 44 27 63 52 11 14 5 22 -45 63 -32 26 -84 71 -115 101 -32 29 -88 77
-125 106 -38 29 -95 78 -128 109 -33 32 -85 77 -115 100 -30 24 -84 70 -120
104 -36 33 -87 79 -115 100 -27 22 -69 58 -93 80 -24 22 -48 42 -53 43 -17 7
-9 41 13 56 28 20 39 20 128 0 62 -14 86 -27 159 -82 47 -35 109 -86 136 -112
28 -26 82 -73 120 -105 39 -32 95 -81 125 -109 30 -29 78 -70 105 -92 64 -50
92 -74 176 -152 37 -35 89 -79 116 -99 26 -20 73 -60 103 -88 82 -76 150 -105
249 -105 44 0 82 4 85 9 3 5 18 12 32 15 30 8 94 54 94 67 0 11 -24 36 -65 67
-68 52 -101 80 -154 130 -31 30 -90 80 -131 112 -41 32 -88 72 -105 90 -16 18
-64 60 -105 92 -41 33 -100 84 -130 112 -30 28 -91 81 -135 116 -44 36 -107
90 -140 120 -33 31 -82 73 -110 95 -27 21 -71 58 -97 82 -26 24 -54 43 -61 43
-8 0 -20 7 -27 15 -7 8 -20 15 -29 15 -9 0 -22 5 -29 12 -51 51 -351 69 -462
27 -126 -47 -186 -85 -275 -174 -49 -50 -103 -111 -120 -136 -16 -24 -33 -46
-36 -49 -7 -6 -144 -178 -223 -279 -33 -42 -65 -80 -72 -86 -6 -5 -29 -35 -49
-65 -21 -30 -49 -66 -62 -80 -13 -14 -36 -43 -51 -65 -15 -22 -42 -56 -59 -76
-39 -43 -113 -146 -113 -159 0 -7 41 -44 145 -130 16 -14 68 -61 115 -106 47
-44 139 -127 205 -184 66 -57 163 -143 215 -191 98 -90 152 -138 425 -381 88
-79 189 -170 225 -204 36 -34 101 -92 145 -130 44 -37 114 -100 155 -140 68
-65 121 -112 206 -184 16 -13 65 -58 109 -100 44 -41 128 -115 185 -164 58
-50 143 -127 190 -172 91 -88 128 -122 174 -157 81 -62 176 -161 176 -184 0
-24 -50 -103 -100 -158 -15 -16 -48 -58 -74 -93 -27 -35 -56 -71 -66 -80 -9
-9 -34 -41 -54 -70 -20 -29 -44 -60 -54 -70 -9 -9 -39 -46 -66 -82 -27 -36
-64 -82 -82 -102 -19 -21 -44 -54 -57 -75 -13 -21 -67 -81 -120 -134 -80 -79
-112 -104 -181 -137 -46 -23 -96 -44 -112 -48 -16 -3 -49 -13 -74 -21 -53 -17
-224 -9 -279 13 -18 8 -48 14 -66 14 -19 0 -46 6 -62 14 -38 20 -102 43 -134
50 -39 8 -129 93 -129 121 0 13 18 45 40 72 22 26 61 75 87 108 26 33 56 69
66 80 11 11 44 52 73 90 30 39 83 104 117 146 34 42 81 101 105 130 23 30 51
65 62 79 72 88 130 171 130 183 0 17 -151 163 -283 273 -50 43 -126 110 -167
150 -41 39 -115 107 -165 149 -49 43 -134 118 -187 167 -54 49 -130 117 -170
150 -40 33 -111 97 -158 143 -47 46 -117 109 -156 141 -39 33 -120 105 -180
160 -60 56 -146 133 -190 170 -116 98 -321 282 -444 399 -58 55 -129 121 -159
145 -83 68 -137 118 -214 197 -39 39 -97 91 -129 115 -32 23 -61 53 -64 64 -6
23 40 98 96 159 16 17 40 48 54 70 15 22 45 60 66 85 47 53 132 162 177 227
18 26 52 67 76 92 24 25 52 59 62 75 10 16 43 57 74 91 31 33 79 89 106 124
116 146 175 224 175 231 0 10 -39 20 -70 18 -14 -1 -49 -3 -79 -5z"/>
<path d="M448 2156 c-100 -37 -116 -66 -62 -114 21 -20 91 -83 154 -142 63
-59 135 -124 160 -146 24 -21 51 -46 60 -54 9 -8 95 -85 190 -170 179 -160
277 -249 390 -354 36 -34 94 -86 130 -116 36 -30 101 -89 145 -132 107 -102
271 -238 342 -284 111 -71 251 -125 393 -151 131 -23 157 -26 164 -14 12 19
-11 47 -131 152 -64 57 -165 147 -223 199 -58 53 -136 121 -175 152 -38 30
-81 68 -95 83 -14 15 -110 103 -215 195 -104 92 -201 180 -215 195 -14 15 -61
59 -105 98 -44 38 -136 122 -205 187 -69 64 -152 140 -185 167 -33 27 -95 83
-139 124 -111 105 -157 129 -259 135 -56 3 -94 0 -119 -10z"/>
<path d="M1193 2164 c-12 -3 -42 -15 -65 -28 -60 -32 -62 -58 -6 -104 24 -20
81 -73 128 -117 47 -44 112 -102 145 -130 53 -45 124 -110 239 -218 23 -22 65
-60 95 -85 30 -26 91 -81 137 -122 46 -41 143 -129 216 -195 73 -66 180 -165
238 -220 58 -55 129 -120 159 -145 30 -25 73 -61 95 -81 76 -67 201 -137 326
-180 54 -19 287 -69 322 -69 38 0 29 28 -27 81 -104 99 -139 130 -365 327
-124 108 -256 226 -295 263 -38 36 -104 95 -145 130 -102 87 -142 122 -230
205 -41 40 -113 104 -160 144 -47 40 -141 125 -209 188 -207 194 -344 313
-385 334 -39 20 -164 33 -213 22z"/>
</g>
</svg>
